<svg width="32" height="32" viewBox="0 0 32 32" xmlns="http://www.w3.org/2000/svg">
  <defs>
    <linearGradient id="sageGradient" x1="0%" y1="0%" x2="100%" y2="100%">
      <stop offset="0%" style="stop-color:#80968B;stop-opacity:1" />
      <stop offset="100%" style="stop-color:#6B7B6B;stop-opacity:1" />
    </linearGradient>
    <linearGradient id="lavenderGradient" x1="0%" y1="0%" x2="100%" y2="100%">
      <stop offset="0%" style="stop-color:#DAB1DA;stop-opacity:1" />
      <stop offset="100%" style="stop-color:#C4A1C4;stop-opacity:1" />
    </linearGradient>
    <linearGradient id="goldGradient" x1="0%" y1="0%" x2="100%" y2="100%">
      <stop offset="0%" style="stop-color:#B8860B;stop-opacity:1" />
      <stop offset="100%" style="stop-color:#D4A574;stop-opacity:1" />
    </linearGradient>
  </defs>
  
  <!-- Background circle with theme gradient -->
  <circle cx="16" cy="16" r="15" fill="url(#lavenderGradient)" stroke="url(#sageGradient)" stroke-width="2"/>
  
  <!-- Fancy H in sage green -->
  <path d="M8 6 L8 26 M8 16 L24 16 M24 6 L24 26" 
        stroke="url(#sageGradient)" 
        stroke-width="3" 
        stroke-linecap="round" 
        stroke-linejoin="round"
        fill="none"/>
  
  <!-- Decorative elements in gold -->
  <circle cx="6" cy="6" r="1.5" fill="url(#goldGradient)"/>
  <circle cx="26" cy="6" r="1.5" fill="url(#goldGradient)"/>
  <circle cx="6" cy="26" r="1.5" fill="url(#goldGradient)"/>
  <circle cx="26" cy="26" r="1.5" fill="url(#goldGradient)"/>
  
  <!-- Small decorative hearts in gold -->
  <path d="M12 10 C12 8, 14 8, 14 10 C14 8, 16 8, 16 10 C16 12, 14 14, 12 12 Z" 
        fill="url(#goldGradient)" opacity="0.8"/>
  <path d="M18 10 C18 8, 20 8, 20 10 C20 8, 22 8, 22 10 C22 12, 20 14, 18 12 Z" 
        fill="url(#goldGradient)" opacity="0.8"/>
</svg>
